<?xml version="1.0" encoding="UTF-8"?>
<svg id="Calque_1" xmlns="http://www.w3.org/2000/svg" version="1.1" viewBox="0 0 120 120">
  <!-- Generator: Adobe Illustrator 29.8.2, SVG Export Plug-In . SVG Version: 2.1.1 Build 3)  -->
  <path fill="currentColor" d="M55.37,72.4c-1.45.11-2.77.04-3.99.35-4.44,1.13-8.81.79-12.97-.86-4.69-1.87-8.47-4.96-10.21-9.92-.55-1.56-.56-3.29-.05-4.98.75-2.52,1.96-4.75,3.57-6.83,1.42-1.83,2.61-3.85,3.95-5.75,1.33-1.89,1.72-3.99,1.66-6.26-.05-1.8-.09-3.64.2-5.41.86-5.3,4.23-9.04,8.12-12.36,1.2-1.02,2.72-1.54,4.32-1.53,4.44.02,8.83.52,12.62,3.02,2.14,1.41,4.2,3.1,5.85,5.05,4.06,4.81,9.02,8.43,14.16,11.94,2.42,1.66,4.56,3.77,6.68,5.83,1.7,1.65,2.47,3.94,3.24,6.12.7,1.98.55,4-.56,5.95-1.38,2.45-3.21,4.38-5.72,5.63-3.58,1.78-7.18,3.5-10.95,5.33-.63,1.17.15,2.28.65,3.45,1.34,3.09,2.43,6.23,2.83,9.63.23,1.97.26,3.87-.27,5.77-.65,2.37-1.32,4.74-2,7.1-.39,1.34-1.26,2.21-2.58,2.68-1.34.48-2.66,1-3.98,1.53-1.52.6-3.01.6-4.48-.17-1.03-.54-2.04-1.14-3.12-1.57-2.7-1.08-4.2-3.38-5.7-5.63-.45-.67-.59-1.73-.47-2.56.22-1.53.76-3,1.11-4.51.87-3.79.8-7.45-1.91-11.04Z"/>
</svg>