<?xml version="1.0" encoding="UTF-8"?>
<svg id="Calque_1" xmlns="http://www.w3.org/2000/svg" version="1.1" viewBox="0 0 120 120">
  <!-- Generator: Adobe Illustrator 29.8.2, SVG Export Plug-In . SVG Version: 2.1.1 Build 3)  -->
  <path fill="currentColor" d="M81.53,26.52c3.42,2.19,6.61,4.15,9.7,6.24,1.98,1.34,2.05,3.04.14,4.57-1.17.94-2.56,1.65-3.93,2.29-1.21.56-2.53.89-3.82,1.33-.49,6.04.13,12.06-2.1,17.69-13.7-2.99-25.28-9.93-37.19-16.59,1.95-5.38,4.54-10,9.64-13.01-.66-1.92-1.31-3.65-1.84-5.41-.69-2.3-.19-3.32,1.92-4.64,1.22-.77,2.49-1.02,3.9-.84,1.65.2,2.89.89,3.48,2.55.45,1.28,1.16,2.5,1.45,3.81.53,2.39,2.11,3.32,4.31,3.66,2.85.44,5.77.7,7.71,2.92,3.1-.36,4.03-3.33,6.63-4.56Z"/>
  <path fill="currentColor" d="M38.32,42.34c7.74,4.33,14.85,8.3,22.36,12.5-.06,1.01.15,2.42-.29,3.59-1.14,3.01-2.53,5.94-3.9,8.86-.87,1.85-2.14,3.55-2.76,5.47-1.22,3.76-3.13,7.17-4.84,10.7-1.19,2.45-2.11,5.03-3.24,7.5-1.45,3.19-3.38,3.86-6.59,2.39-.16-.07-.33-.12-.46-.23-3.63-3.1-7.44-6.16-9.09-10.79-1.38-3.85-1.95-7.93-1.55-12.1.91-9.51,3.48-18.4,9.37-26.11.41-.54.67-1.19.99-1.78ZM49.44,62.44c.7-1.94-.36-3.24-1.57-4.47-1.08-1.09-2.49-.98-3.81-.85-3.44.34-5.16,2.12-4.88,5.14.06.68.71,1.55,1.33,1.87.84.42,1.98.69,2.87.5,2.1-.45,4.38-.56,6.06-2.19ZM39.99,81.97c.91-.18,1.57-.26,2.21-.45,1.36-.42,1.92-1.73,1.41-3.22-.36-1.05-1.62-1.52-2.93-.94-.74.33-1.59.77-1.97,1.41-.36.61-.37,1.62-.14,2.32.15.45,1.02.65,1.42.88Z"/>
  <path fill="currentColor" d="M48.72,96.03c5.34-13.03,10.62-25.89,15.94-38.87,3.01.33,5.47,1.47,7.95,2.46,2.84,1.13,5.68,2.31,8.41,3.68,2.22,1.12,3.94,2.74,3.38,5.64-.07.33-.11.69-.06,1.02.83,6.1-1.8,11.32-4.3,16.54-1.5,3.14-4,5.49-6.85,7.43-4.29,2.92-8.86,4.85-14.19,5.19-3.76.24-7.13.09-10.28-3.09ZM72,69.12c-.85.08-1.72.06-2.54.25-5.12,1.18-5.37,3.09-2.63,6.56,3.13,3.96,5.83,4.62,10.2.42.36-.35.75-.78.87-1.24.16-.62.32-1.44.05-1.94-1.25-2.36-2.89-4.26-5.94-4.05ZM68.96,89.66c.11-1.29-.86-2.42-2.38-2.77-1.53-.36-3.3.23-3.49,1.2-.22,1.15.55,1.87,1.32,2.5.51.42,1.12.73,1.73,1,1.29.56,2.69-.42,2.82-1.92Z"/>
</svg>