<?xml version="1.0" encoding="UTF-8"?>
<svg id="Calque_1" xmlns="http://www.w3.org/2000/svg" version="1.1" viewBox="0 0 120 120">
  <!-- Generator: Adobe Illustrator 29.8.2, SVG Export Plug-In . SVG Version: 2.1.1 Build 3)  -->
  <path fill="currentColor" d="M39.09,96.42c-1.64-.69-3.07-1.7-4.57-2.77-.85-.6-1.72-1.22-2.64-1.78.28-.55.67-.98,1.07-1.43.27-.3.54-.6.77-.92.26-.36.5-.73.75-1.1.43-.65.84-1.26,1.3-1.82,1.22-1.47,1.56-3.1,1.07-5.12-1.64-6.7-.91-13.62,2.23-21.17,2.06-4.96,5.52-9.2,8.6-12.79,2.52-2.93,5.78-5.05,8.63-6.81,6.47-3.98,13.13-7.91,19.57-11.71l.44-.26c2.76-1.63,5-3.11,6.95-5.08.27-.27.68-.48,1.07-.67.05-.02.09-.05.14-.07.1.5.21,1.01.32,1.52.34,1.59.68,3.23.92,4.84.49,3.41.93,6.82,1.38,10.24.27,2.04.53,4.08.81,6.12.38,2.85-.07,5.62-.55,8.54l-.14.86c-.85,5.16-1.72,10.5-3.57,15.49-.54,1.47-1.18,2.99-2.5,4.07-.65.53-1.14,1.21-1.62,1.87-4.2,5.8-9.94,9.74-17.61,12.17-.56.18-1.2.37-1.83.45-.89.12-1.77.25-2.66.37-2.51.36-5.11.73-7.66.89-.3.02-.61.03-.91.03-1.2,0-2.4-.13-3.69-.26-.74-.08-1.5-.16-2.27-.21l-.41-.03-.23.34c-.7,1.02-1.12,2.09-1.53,3.12-.45,1.14-.87,2.21-1.63,3.08ZM57.25,67.48c-2.98,2.99-5.96,5.97-8.93,8.97-.31.31-.3.72-.3.99,0,.06,0,.12,0,.17l-.05.49.44.22c.94.47,1.38.69,1.84.69.65,0,1.04-.46,1.35-.82.66-.77,1.39-1.51,2.09-2.22,1.34-1.36,2.72-2.76,3.77-4.51.59-.98,1.4-1.84,2.25-2.75.2-.21.4-.43.6-.64l.54.92.25-1.81.53-.62-.44-.16.31-2.89-1.24.77c-.71.44-.95.95-.97,1.42l-.19-.07-1.85,1.85Z"/>
</svg>