<?xml version="1.0" encoding="UTF-8"?>
<svg id="Calque_1" xmlns="http://www.w3.org/2000/svg" version="1.1" viewBox="0 0 120 120">
  <!-- Generator: Adobe Illustrator 29.8.2, SVG Export Plug-In . SVG Version: 2.1.1 Build 3)  -->
  <path fill="currentColor" d="M79.88,28.33c1.27,0,2.39.62,3.24,1.81,1.17,1.63,1.87,3.49,2.1,5.53.34,3.09.64,7.16-.13,11.19l-.06.34.24.25c.32.34.71.51,1.14.51.31,0,.58-.09.8-.16.13-.04.25-.08.34-.09.37-.04.74-.13,1.11-.23.25-.07.49-.13.74-.17.55-.08,1.02-.13,1.46-.13,1.14,0,2.09.29,3.01.9,2.14,1.43,2.85,3.18,2.29,5.68-.63,2.82-1.64,5.18-3.08,7.22-2.61,3.69-5.29,6.76-8.19,9.39-1.17,1.06-2.67,1.86-4.11,2.64-.58.31-1.17.63-1.73.96-.38.22-.82.39-1.29.57-.24.09-.48.18-.73.29l-.65.27.31.63c.54,1.08,1.46,1.08,1.95,1.08h.1c.16,0,.25,0,.34.02,1.84.33,3.45,1.09,4.95,2.33.53.44.82,1.21.81,2.1-.02.91-.36,1.79-.86,2.17-2.52,1.95-4.9,3.79-8.13,3.79h0c-.87,0-1.68.15-2.45.43-5.17,1.88-10.69,2.5-16.03,3.09l-1.58.18c-.59.07-1.16.1-1.72.1-3.01,0-5.74-.91-8.01-1.81-2.3-.91-4.62-1.78-6.95-2.63-5.27-1.9-9.67-5.37-13.45-10.6-1.4-1.93-1.72-4.27-1.94-6.69-.04-.43.14-.88.5-1.28.49-.54,1.22-.86,1.95-.86,2.27.14,4.43.53,6.51.91l.88.16c.56.1,1.12.31,1.89.59.43.16.93.34,1.51.54l2.02.68-1.28-1.7c-.58-.77-1.11-1.46-1.61-2.11-1.01-1.31-1.87-2.44-2.65-3.59-.82-1.22-1.57-2.53-2.29-3.79l-.72-1.26c-2.51-4.32-5.53-10.1-6.55-16.57-.29-1.83-.33-3.77-.33-5.45,0-.93.45-1.58,1.62-2.32,1.35-.85,2.79-1.27,4.42-1.27,1.84,0,3.69.53,5.41,1.11,1.38.46,2.92,1.66,4.35,3.38,1.63,1.96,3.54,3.57,5.4,5.12l.34.28c.48.4.92.84,1.42,1.32.25.25,1.39,1.33,1.39,1.33l.42-.69c.77-1.26.69-2.43.63-3.38l-.02-.4c-.11-2.32.3-4.53,1.23-6.57.45-1,.91-1.96,1.53-2.72.98-1.2,2.22-1.85,3.49-1.85,1.17,0,2.26.55,3.16,1.59,2.06,2.39,4.04,5.06,4.61,8.32.25,1.47.57,3.31,2.07,4.84l.34.35.43-.22c.97-.5,1.23-1.39,1.44-2.11l.1-.33c1.6-4.97,5.17-8.26,9.33-11.75.3-.26.72-.46,1.12-.65.77-.38,1.5-.56,2.2-.56ZM50.93,76.39c.37,0,.73-.17,1.1-.53l.42-.41-2.07-2.73c-1.49-1.96-2.99-3.93-4.47-5.92-.46-.62-.87-1.27-1.28-1.93l-.49-.78c-.18-.28-.35-.56-.52-.84-.34-.56-.69-1.12-1.08-1.65-1.33-1.77-2.7-3.51-4.07-5.25l-.46-.59c-.05-.07-.11-.15-.16-.22-.27-.39-.67-.98-1.48-.98-.09,0-.19,0-.3.03l-.72.13.2.7c.05.19.1.39.14.58.12.53.24,1.07.53,1.57,1.35,2.29,2.79,4.58,4.18,6.79l.08.13c.55.88,1.05,1.57,1.56,2.17,2.54,3,5.11,5.99,7.69,8.96.26.32.61.75,1.19.75ZM72.14,70.55c.36-.13.63-.21.85-.28.41-.13.67-.21.92-.41,2.92-2.3,5.95-4.68,8.95-7.13.58-.47,1.03-1.07,1.46-1.64l.32-.42c.86-1.11.32-1.84-.08-2.17l-.37-.31-.41.26c-3.78,2.46-10.25,8.06-12.4,11.09l-1.21,1.71,1.97-.71Z"/>
</svg>