<?xml version="1.0" encoding="UTF-8"?>
<svg id="Calque_1" xmlns="http://www.w3.org/2000/svg" version="1.1" viewBox="0 0 409 713">
  <!-- Generator: Adobe Illustrator 29.8.2, SVG Export Plug-In . SVG Version: 2.1.1 Build 3)  -->
  <path fill="currentColor" d="M234.01,438.75c-1.75,7.11-6.61,12.35-3.2,20.51,18.54-16.11,41.18-19.29,63.29-23.25,14.51-2.6,28.25,1.91,40.61,9.74,6.17,3.91,7.87,8.37,5.52,15.34-6.14,18.22-14.71,34.45-30.36,47.23-25.92,21.17-55.81,31.07-88.03,36.09-9.4,1.46-18.73,3.42-28.14,4.83-8.75,1.31-13.3,6.76-16.39,14.54-6.77,17.08-13.93,34.02-20.87,50.86-8.25,1.94-16.23,3.87-24.25,5.67-4.33.97-8.26.35-11.6-4.52,6.42-13.9,12.31-28.63,15.02-43.98-19.61-15.11-35.81-32.22-49.99-51.38-14.7-19.86-20.2-42.73-22.65-66.64-.87-8.47,3.37-15.52,9.88-19.9,15.81-10.65,40.66-12.05,53.21,8.85,1.53,2.55,2.71,5.49,4.77,7.5,11.3,11.02,18.06,24.96,25.47,38.5.79,1.44,1.96,2.68,3.74,5.06,6.04-9.81,8.76-19.88,12.55-30.55-4.56-3.87-8.25-7.7-12.57-10.56-19.75-13.03-33.91-31.58-48.49-49.55-7.14-8.8-10.46-19.98-12.84-31.11-1.37-6.39-2.42-12.89-2.93-19.39-.73-9.3,1.8-17.61,9.28-23.86,2.74-2.29,5.35-4.76,8.2-6.9,12.33-9.25,24.56-7.82,36.43,3.22,12.23,11.38,22.71,24.18,32.92,37.3,6.1,7.83,12.34,15.59,20.26,23.23,7.16-12.65,5.12-25.21,6.86-37.44-3.62-2.42-6.3-4.88-9.46-6.23-19.33-8.29-35.68-21-51.77-34.18-6.56-5.37-12.24-11.21-15.52-19.21-1.34-3.28-2.81-6.86-5.24-9.28-6.59-6.55-7.95-15.31-7.56-23.18.86-17.18,3.29-34.34,14.25-48.89,3.16-4.19,6.66-6.43,11.9-6.42,6.08,0,11.74,1.02,17.02,4.33,11.6,7.26,23.8,13.65,34.88,21.61,9.04,6.5,16.8,14.77,26.12,23.14.29-2.91.8-5.43.73-7.95-.12-4.76-.85-9.51-.85-14.26.02-16.01-6.6-28.51-18.93-38.57-4.5-3.68-8.33-8.4-11.72-13.18-13.28-18.74-12.79-40.4-11.87-61.84.43-10.05,2.84-20.02,4.41-30.01,2.15-13.71,9.16-25.69,13.99-38.43,2.93-7.75,7.16-15,10.66-22.18,8.45-3.65,15.9-2.4,21.85,3.63,11.2,11.34,24.32,20.88,32.92,34.68,1.57,2.52,3.65,4.91,4.52,7.67,6.4,20.37,15.37,40.2,13.96,62.3-1.06,16.68-3.41,32.96-13.11,47.35-6.98,10.37-12.1,21.52-10.79,35.58,5.93-.05,8.83-3.69,11.74-7.05,8.2-9.49,17.06-18.15,27.28-25.57,9.9-7.2,21.21-10.66,32.57-14.12,3.31-1.01,7.09-.72,10.64-.6,4.66.15,9.2,4,9.92,8.65,1.63,10.54,3.49,21.09,4.27,31.71.96,13.17-.05,25.99-8.83,37.22-8.04,10.29-15.1,21.34-22.74,31.95-10.69,14.85-26.04,22.1-43.29,26.19-5.21,1.24-10.47,2.37-15.54,4.07-5.57,1.87-8.75,5.8-8.71,12.06.06,8.85-.13,17.7-.2,25.9,4.31,3.09,6.3.13,8.64-1.33,21.45-13.3,45.02-18.23,69.97-17.71,5.61.12,9.41,2.63,10.63,7.73,1.93,8.07,3.59,15.89-1.51,23.98-7.6,12.05-13.88,24.91-21.3,37.08-2.39,3.92-6.18,7.34-10.04,9.96-19.29,13.08-39.55,24.25-62.58,29.46-5.2,1.18-10.33,2.69-17.05,4.46Z"/>
</svg>