<?xml version="1.0" encoding="UTF-8"?>
<svg id="Calque_1" xmlns="http://www.w3.org/2000/svg" version="1.1" viewBox="0 0 120 120">
  <!-- Generator: Adobe Illustrator 29.8.2, SVG Export Plug-In . SVG Version: 2.1.1 Build 3)  -->
  <path fill="currentColor" d="M46.32,94.89c-.29-.22-.56-.5-.82-.87-1.92-2.77-2.78-5.1-2.87-7.78-.18-5.16.64-10.08,2.49-15.05.07-.2.09-.38.12-.64.01-.14.03-.32.06-.56l.06-.44-2.68-1.21c-1.65-.75-3.28-1.48-4.89-2.24-2.72-1.28-5.27-2.79-7.59-4.49-1.14-.84-2.25-1.74-3.3-2.68-1.68-1.52-2.68-3.51-3.42-5.3.54-.98,1.32-1.66,2.44-2.15,5.8-2.54,11.34-3.34,16.93-2.43.76.12,1.52.21,2.33.31l1.77.22.11-.55c.4-1.97-.2-3.7-.77-4.99-.92-2.09-1.46-4.35-1.98-6.54-.15-.62-.29-1.24-.45-1.85-.43-1.69-.36-3.6-.26-4.88.12-1.64.37-3.29.62-4.88.09-.58.18-1.16.26-1.73.09-.06.17-.11.24-.16.12-.08.29-.2.34-.21,2.23-.2,4.53.32,6.44,1.47,1.67,1,3.29,2.07,4.8,3.18.71.52,1.41,1.06,2.09,1.61,2.48,2.01,4.28,4.39,5.71,6.45.56.81.92,1.76,1.31,2.77.14.37.29.75.44,1.11l.14.35c.26.67.56,1.44,1.33,2,.24.17.51.32.81.43l.34.13.27-.25c.1-.09.22-.19.33-.28.29-.24.62-.5.88-.84l.44-.56c.77-.98,1.56-1.99,2.22-3.08,1.87-3.13,4.69-5.44,7.42-7.69.6-.5,1.2-.99,1.8-1.49.48-.4.98-.47,1.38-.17.19.14.35.35.46.62.47,1.09.9,2.33,1.3,3.78,1.62,5.78,2.49,11.89,2.65,18.67.12,4.94-1.08,10.1-3.67,15.78-.21.47-.43.93-.68,1.44l-.63,1.31,1.01.61c.34.2.64.38.93.57.35.23.71.44,1.08.65.57.33,1.1.65,1.59,1.01.22.16.43.34.63.52l.15.14c1.97,1.84,4,3.74,6.23,5.37.32.24.65.47.98.69h0c.35.26.55.6.59.96.03.31-.06.6-.25.82-.88.98-1.81,1.92-2.79,2.91l-.91.93c-.53-.44-1.07-.87-1.59-1.29-1.5-1.21-2.91-2.35-4.25-3.59-.62-.57-1.3-1.13-2.02-1.66-1.33-.98-2.86-1.9-4.81-2.91l-.32-.16-.3.2c-.12.08-.24.15-.35.22-.25.15-.49.29-.7.51-.68.74-1.35,1.5-2.02,2.26-1.33,1.5-2.7,3.06-4.15,4.48-1.18,1.16-2.61,2.14-4,3.08l-1.65,1.13c-3.08,2.12-6.26,4.31-9.86,5.58-2.32.82-4.83,1.61-7.43,1.84-.87.08-1.54-.08-2.1-.49ZM83.94,43.86c-.17-.13-.38-.2-.64-.23l-.55-.06-.11.55c-.22,1.15-.44,2.3-.65,3.45-.47,2.56-.96,5.2-1.56,7.76-.6,2.53-1.34,5.09-2.05,7.57-.33,1.13-.65,2.26-.97,3.4l-.18.66.68.1c1.44.21,2.06-.76,2.36-1.23,1.19-1.89,2.1-4.09,2.76-6.72.9-3.6,1.31-7.48,1.32-12.55,0-.16,0-.32.01-.48.01-.31.02-.61,0-.92,0-.05,0-.11,0-.16.02-.28.05-.8-.41-1.14Z"/>
</svg>