<?xml version="1.0" standalone="no"?>
<!DOCTYPE svg PUBLIC "-//W3C//DTD SVG 20010904//EN"
 "http://www.w3.org/TR/2001/REC-SVG-20010904/DTD/svg10.dtd">
<svg version="1.0" xmlns="http://www.w3.org/2000/svg"
 width="120.000000pt" height="120.000000pt" viewBox="0 0 120 120"
 preserveAspectRatio="xMidYMid meet">

<g transform="translate(0.000000,120.000000) scale(0.100000,-0.100000)"
fill="currentColor" stroke="none">
<path d="M584 1171 c-114 -28 -204 -168 -191 -296 l5 -53 -42 29 c-55 39 -109
46 -175 24 -68 -22 -109 -58 -137 -120 -38 -80 -28 -181 24 -238 29 -32 89
-57 137 -57 l47 0 -41 -46 c-68 -78 -89 -184 -49 -244 43 -62 70 -75 161 -75
94 0 146 20 219 85 l44 38 27 -33 c42 -53 122 -87 205 -86 37 0 85 7 105 16
108 45 124 216 30 316 l-24 26 28 11 c15 6 40 14 54 17 74 18 156 139 146 216
-6 43 -43 97 -90 133 -37 27 -132 33 -196 12 -27 -9 -52 -16 -55 -16 -3 0 1
19 9 41 18 49 19 109 4 164 -15 54 -84 120 -135 129 -22 4 -48 9 -59 11 -11 2
-34 0 -51 -4z m0 -511 c12 0 43 10 69 23 l46 24 -6 -49 c-6 -46 -4 -51 28 -84
l33 -34 -26 0 c-46 0 -75 -18 -99 -60 l-23 -41 -18 35 c-26 52 -59 70 -111 62
l-42 -6 32 28 c41 36 55 71 42 114 -5 18 -9 34 -9 36 0 2 14 -8 31 -22 17 -14
41 -26 53 -26z"/>
</g>
</svg>
