<?xml version="1.0" standalone="no"?>
<!DOCTYPE svg PUBLIC "-//W3C//DTD SVG 20010904//EN"
 "http://www.w3.org/TR/2001/REC-SVG-20010904/DTD/svg10.dtd">
<svg version="1.0" xmlns="http://www.w3.org/2000/svg"
 width="120.000000pt" height="120.000000pt" viewBox="0 0 120 120"
 preserveAspectRatio="xMidYMid meet">

<g transform="translate(0.000000,120.000000) scale(0.100000,-0.100000)"
fill="currentColor" stroke="none">
<path d="M314 1095 c-9 -22 2 -32 45 -38 107 -14 139 -65 152 -240 5 -67 13
-133 18 -147 8 -23 4 -28 -31 -49 -35 -20 -42 -21 -56 -8 -10 8 -64 38 -122
66 -161 79 -199 128 -185 238 6 50 5 54 -12 51 -22 -4 -42 -58 -42 -119 -1
-74 61 -157 157 -209 48 -26 57 -42 25 -48 -10 -2 -31 -16 -46 -30 -34 -32
-32 -68 7 -130 l25 -40 -37 -6 c-77 -12 -105 -61 -60 -104 13 -11 35 -24 51
-27 37 -10 34 -20 -12 -33 -47 -15 -91 -57 -91 -88 0 -49 94 -84 225 -84 65 0
205 25 334 61 70 19 75 19 93 2 24 -22 78 -22 112 1 25 16 27 22 25 76 -2 51
1 63 28 97 107 137 176 263 204 371 21 84 18 120 -11 147 -26 23 -72 7 -122
-42 l-38 -37 0 47 c0 51 -24 87 -58 87 -22 0 -67 -45 -79 -78 -9 -23 -10 -22
-38 22 -16 25 -40 49 -55 54 -38 14 -83 -8 -100 -48 -17 -41 -25 -27 -40 65
-12 74 -26 106 -67 155 -50 60 -184 104 -199 65z m423 -742 c9 -13 28 -30 43
-38 15 -8 33 -28 40 -45 11 -28 11 -34 -7 -58 -11 -15 -31 -28 -45 -30 -28 -3
-78 32 -78 56 0 9 -9 28 -20 42 -24 31 -26 86 -4 98 24 13 53 3 71 -25z"/>
</g>
</svg>
