<?xml version="1.0" standalone="no"?>
<!DOCTYPE svg PUBLIC "-//W3C//DTD SVG 20010904//EN"
 "http://www.w3.org/TR/2001/REC-SVG-20010904/DTD/svg10.dtd">
<svg version="1.0" xmlns="http://www.w3.org/2000/svg"
 width="120.000000pt" height="120.000000pt" viewBox="0 0 120 120"
 preserveAspectRatio="xMidYMid meet">

<g transform="translate(0.000000,120.000000) scale(0.100000,-0.100000)"
fill="currentColor" stroke="none">
<path d="M660 1107 c-110 -39 -200 -117 -293 -258 -66 -100 -140 -174 -185
-183 -17 -4 -48 -3 -68 3 -45 12 -54 4 -54 -49 0 -42 27 -99 55 -114 29 -16
35 -27 23 -46 -8 -12 -6 -25 5 -47 16 -31 41 -44 112 -59 32 -7 41 -14 43 -34
8 -54 70 -90 158 -90 32 0 46 -6 70 -31 39 -41 100 -72 145 -72 45 0 59 8 59
34 0 23 3 23 42 3 45 -23 119 -44 159 -44 39 0 59 14 59 42 0 13 8 18 26 18
33 0 61 15 102 53 34 33 43 67 17 67 -30 0 -91 39 -103 65 -20 44 -13 109 25
232 42 135 46 208 18 293 -44 136 -157 221 -305 227 -42 1 -90 -3 -110 -10z"/>
</g>
</svg>
