<?xml version="1.0" encoding="UTF-8"?>
<svg id="Calque_1" data-name="Calque 1" xmlns="http://www.w3.org/2000/svg" viewBox="0 0 126.33 119.67">
  <path fill="currentColor" d="M61.62,13.21c.61.58-.07,3.19.84,3.6.62.33,1.64-.44,2.49-.9.83-.45,1.75-.75,2.7-.92,1.89-.42,3.34,1.62,2.52,3.31-.88,1.88-2.74,3.01-4.09,4.53-.86.76-1.73,1.38-1.88,2.53-.09.57-.08,1.14-.05,1.71,0,.74,0,2.68,1.09,1.68,1.05-1.59,4.4-3.2,5.23-.8.93,3.97-3.96,6.15-5.59,9.22-.98,1.5-.47,3.53-.21,5.2.36,2.26.32,4.67,1.24,6.83.25.94.26,1.91.87,2.62.64.74,1.65,1.27,2.48,1.66.46.2.93.27,1.43.05,1.01-.44,1.91-1.46,1.87-2.61,0-1.82.2-3.78.32-5.7.08-1.7.1-3.76,1.87-4.57,1.69-.8,2.46,1.4,2.67,2.77.17.9-.19,1.79-.34,2.79-.23,2.53,1.18.36,2.24-.68,1.05-1.1,2.01-2.22,2.96-3.14.49-.48,1.35-.88,1.73-1.64.26-.55.22-1.22.22-1.83-.06-1.62.42-3.01.55-4.59.08-1.97.22-3.93,1.6-5.46.61-.82,1.58-.68,2.48-.31.53.2,1.03.44,1.34.84.61.75.45,2.08.38,3.22-.11,1.47-.59,3.14.59,2.11,1.24-1.39,2.59-2.69,4.06-3.83,2.48-2.51,9.06-9.7,10.69-3.01.52,2.19-2.41,3.58-3.61,5.07-.38.42-.71.88-1.05,1.34-1.29,2.03-3.79,3.33-5.14,5.35-.34,1.16,2.04.72,2.62,1.1,1.06.43,1.82,2.28,1.56,3.36-.21.99-1.4,1.35-2.34,1.71-2.61,1.38-6.46.26-9.19.76-.72.26-1.23.92-1.91,1.53-.6.55-1.47,1.18-1.85,1.81-.78,1.48,1.81.84,2.48,1.15.49.17.8.64.91,1.22.24,1.66.45,4.12-1.85,4.14-2.96.3-6.27-.07-9.16.76-1.22.51-2,1.7-2.84,2.7-.7.89-2.03,1.75-1.01,2.64,3.07,1.61,6.74,2.15,10.02,3.3,2.47.27,4.52-1.74,6.73-2.56,2.41-.5,6.19-.35,7.3,2,.73,1.62-.76,3.44-2.33,3.87-.9.21-1.93.22-2.87.43-.94.18-1.84.26-1.35.73.51.47,1.67.84,2.42,1.06,1.13.29,2.36.86,3.44.89,1.37-.05,2.92-.74,4.13-1.14,2.2-.87,4.81-1.19,7.03-.45,1.49.3,2.79,2.23,1.34,3.4-.59.53-1.49.95-2.27,1.29-.97.49-2.32.82-2.21,1.22.02.09.11.19.26.3,2.46,2.01,8.78,1.67,7.61,6.2-.36,1.49-1.78,2.47-2.8,3.24-.33.25-.66.52-1.08.43-2.61-.96-6.75-3.28-9.45-4.15-.47,1.08,2.16,4.39,1.78,5.93-.18,1.5-2.18,2.29-3.52,1.99-2.56-.86-2.9-4.04-4.03-6.21-.36-.81-.58-1.67-.88-2.5-.42-1.25-1.75-2.19-3.25-3-1.15-.57-2.59-1.36-3.65-1.75-.59-.17-.8.27-.62,1.13.33,2.13,1.66,4.98-.45,6.32-1.63.91-3.93-.07-4.27-1.91-.7-3.22-1.9-5.83-2.98-8.83-.66-1.57-2.65-2.07-4.31-2.65-.93-.32-1.73-.95-2.39-.65-.84.42-1.32,1.5-1.98,2.08-.4.42-.76.86-.92,1.44-.38,2.63-.09,6,2.33,7.64,1.11,1.04,3.28,1.68,4.32,2.92.61.84,1.34,1.93,1.12,2.94-.34,1.79-2.15,2.96-3.64,1.65-.88-.5-1.85-2.38-2.9-2.21-.58.55.39,1.58.8,2.08,2.19,2.56,4.41,5.05,6.17,7.87,1.07,1.55-1,4.36-2.63,3.63-.72-.34-1.19-1.27-1.77-1.9-.58-.66-1.12-1.24-1.7-2.13-.42-.63-.82-1.12-.91-.98-.19,3.22.12,6.82.48,10.05.28,1.17-.05,2.82-1.37,3.13-2.04.16-4.01-.05-4.21-2.44-.4-2.09-.96-4.51-.93-6.54-.02-.31-.04-.82-.32-.95-1.45-.19-2.42,2.92-3.72,3.45-1,.61-2.35.6-3.05-.43-2.27-3.78,3.39-5.75,4.45-8.97.95-1.86,1.84-6.79-1.45-3.28-1.36,1.2-2.55,2.78-4.22,3.2-2.71.21-2.27-2.99-1.23-4.72.38-.67,1-1.08,1.61-1.51,1.79-1.22,3.24-2.99,4.64-4.54.78-.86.99-2.05.83-3.17-.2-1.19-.04-2.6-.63-3.61-.33-.63-.83-1.13-1.29-1.66-1.01-.97-2.12-2.91-3.2-3.51-.46-.24-.9,0-1.72.48-1.41.97-3.77,1.78-4.88,3.08-.57,2.55-.68,5.37-1,7.96,0,1.91-2.02,1.78-3.62,1.37-.46-.12-.8-.28-.95-.58-.35-1.09.13-3.22.12-4.68.07-.84-.08-1.2-.67-1.03-.94.27-2.16,1.04-3.14,1.41-1.87.85-4.08,1.67-5.41,3.26-1.26,2.32-1.9,6.21-2.82,8.42-1.13,2.68-.65,4.57-4.43,3.27-2.59-.61-.87-3.31-.22-5.01.17-.69.77-2.43.23-2.91-.44-.08-.91.29-1.37.52-2.22,1-3.6,3.44-6.07,3.82-.9.16-1.92-.13-2.46-.89-1.13-1.96,1.7-3.29,2.93-4.26.86-.68,1.82-1.58,2.8-2.34,1.16-.95-.69-.86-1.89-1.19-2.78-.64-4.36-3-1.4-4.86,3.39-.99,8.01-.5,11.5-.97,1.57-.53,3.12-1.77,4.41-2.65.38-.39.04-.66-.57-.86-1.02-.37-2.5-.54-3.15-1.47-.5-.97.62-2.89,1.87-3.08,3.64-.53,7.42.34,11.1.58,2.64-.48,4.79-2.02,7.07-3.29,1.45-.65,1.25-2.97.49-4.03-.6-.73-1.64-1.16-2.57-1.28-1.52.15-3.16.91-4.55,1.58-2.26,1.61-4.7,4.05-7.73,3.27-4.67-1.85-.13-4.85,2.14-6.46.88-.57,2.53-1.19,1.81-1.93-.49-.32-1.25-.38-1.83-.55-2.07-.45-4.36-2.26-6.51-.96-1.15.66-2.25,1.11-3.4,1.97-.84.63-1.73,1.35-2.82,1.36-1.27-.07-2.75-.74-3.7-1.61-.93-.94-.47-2.96.36-4.01.94-.97,2.39-1.25,3.51-1.92,1.55-1.29-1.98-1.98-2.8-2.55-2.68-1.86-6.49-2.52-8.29-5.44-.44-1.78.81-4.16,2.84-3.79,1.55.36,3.66,1.57,5.02,2.01.54.19,1.01.29,1.59.48.99.31,2.27,1.05,2.52.36.26-1.06-.22-2.21,0-3.29.2-1.78,2.1-3.04,3.8-2.48,3.57,1.81,3.16,6.64,4.66,9.72.67.95,2.01,1.2,3.05,1.62.54.15,1.28.63,1.8.27.24-.21.18-.62.14-.94-.24-1.23-.71-2.44-.33-3.77.2-.99.99-2.42,2.06-1.86,2.16.97,2.96,3.44,3.65,5.51.43,2.13,1.23,3.82,2.09,5.72.72,1.74,2.74,2.48,4.42,3.07.78.28,1.6.76,2.27.73.93-.04,1.75-1.14,2.67-1.7,1.55-.91,1.51-2.68,1.3-4.28-.09-1.74-.25-3.37-1.1-4.58-.58-.72-1.39-1.19-2.07-1.8-.82-.71-1.58-1.51-2.39-2.23-1.74-1.55-5.99-3.18-4.14-6.23,1.8-2.08,3.97,1.26,5.86,1.77.88.42,1.63.49,1.76-.18.22-1.24-.65-2.59-.48-3.87.07-.75,0-1.35-.66-1.71-2.29-.87-4.12-1.96-5.68-3.64-1.66-1.11-3.39-2.23-2.59-4.45.42-.96,1.62-.82,2.65-.53,1.65.57,2.67,1.86,4.3,2.43,1.68.77,1.61-.63,1.54-1.82.29-2.2-1.22-4.87.02-6.77,1.04-1.52,3.2-3.04,5.05-2.18l.09.09ZM66.94,59.4c-.64-.48-1.77-.95-2.43-1.41-.96-.78-1.3-1.66-2.66-.82-1.27.79-2.6,1.88-3.7,2.88-.2.24-.5.51-.56.82.3,1.77.46,3.85,1.33,5.51.64,1.03,1.77,1.44,2.64,2.45.5.51,1.06,1.55,1.89,1.17.67-.38,1.41-1.14,1.91-1.74.66-.78,2.09-1.6,2.51-2.71.19-.61,0-1.43-.13-2.4-.27-1.35-.3-2.55-.75-3.65l-.07-.09Z"/>
</svg>