<?xml version="1.0" encoding="UTF-8"?>
<svg id="Calque_1" data-name="Calque 1" xmlns="http://www.w3.org/2000/svg" viewBox="0 0 126.33 119.67">
  <path d="M96,18.45c6.23,6.27,6.49,15.51,4.68,23.77-1.54,7.2-3.11,14.94-8.01,20.68-.94,1.04-2.42,3.68.07,3.56,2.03-.2,3.87-2.29,6.24-2.2,4.09-.02,5.22,4.56,5.48,7.89,1.33,9.47-7.35,18.34-15.51,21.5-3.19,1.39-9.01,2.25-11.74,3.22-.43.17-.64.4-.8.83-1.46,4.89-5.43,12.81-11.02,13.26-4.08-.09-8.71-2.12-12.57-3.67-5.51-2.3-10.82-5.23-16.06-8.31-4.93-2.89-10.26-6.42-14.21-11.83-1.14-1.68-1.9-3.28-2.07-5.05-.13-1.65.24-2.61,1.04-4.73.59-1.39.95-2.96,1.82-4.18,1.06-1.23,3.68-2.24,4.23-4.19,2.42-21.16,16.89-43.79,36.43-53.37,10.39-5.18,22.74-5.98,31.86,2.68l.14.13ZM98.63,34.43c.92-2.35-2.71-3.23-4.32-4.06-5.16-2.65-10.86-5.72-15.65-9.05-1.75-1.16-3.26-2.74-4.84-4.13-1.07-1.19-3.06-1.45-4.1-.23-.17.29-.02.61.33.94,6.08,4.89,12.68,9.45,19.44,13.25,2.37,1.41,5.18,2.15,7.89,3.22.34.14.91.33,1.16.13l.09-.07ZM70.21,25.28c-1.75.1-2.59,2.95-1.34,4.06.87.57,2.16,1.11,3.17,1.09.63-.2,1.04-1.28,1.36-1.86.91-1.83-1.31-3.4-3.05-3.31h-.15ZM94.58,54.48c.76-1.23.27-2.3-1.18-2.82-10.43-4.66-19.61-10.64-28.83-17.32-3.53-1.98-6.76-4.64-9.63-7.5-.44-.32-1.05-.28-1.35.06-.31.34-.25.84.19,1.26,1.78,1.69,3.75,3.33,5.67,4.88,9.46,7.38,19.33,13.97,29.91,19.52,1.15.51,3.13,1.39,4.18,1.86.47.21.76.33.96.15l.07-.07ZM80.49,33.16c-.31.1-.93.6-.65,1.04.2.65.55,1.6.99,2.19.63,1.05,1.87.63,2.4-.24,1.16-1.81-.22-3.82-2.65-3.02l-.1.03ZM52.86,44.72c-2.8-2.16-5.18-4.72-7.61-7.38-1.29-1.35-1.71,1.29-.67,2.12,15.2,16.55,35.23,29.39,56.16,37.03.46-.18.37-1.2-.18-1.78-.52-.55-1.16-.81-1.92-1.05-17.5-5.15-32.37-16.62-45.64-28.81l-.14-.12ZM90.79,42.2c.71,1.44,1.36.48,2.04-.37,1.67-2.49-1.22-3.65-3.28-3-1.89.62.38,2.58,1.15,3.28l.09.1ZM46.2,48.65c-.98-.84-3.83-2.75-4.7-.95-.63,1.27.24,3.67,1.06,4.28.36.19.79-.01,1.19.03.37.06.7.32,1.05.44,2.09.56,2.34-2.54,1.46-3.72l-.07-.09ZM51.29,55.32c-2.02,2.4,5.03,7.48,5.46,3.26.2-1.76-1.04-3.77-2.82-4.02-.74-.08-1.97.33-2.55.68l-.08.08ZM88.39,89.81c-18.94-7.99-36.67-19.27-51.44-33.71-.54-.54-1.59-1.51-2.2-.85-.66.75-.34,2.02.28,2.82,2.38,3.14,5.85,5.06,8.94,7.36,3.86,3.27,42.65,31.47,44.45,24.48l-.03-.09ZM66.01,65.17c-.15-.13-.56-.38-1.08-.66-1.16-.48-1.91-1.32-2.72-.7-2.69,1.88.87,5.27,3.42,4.5,1.04-.47,1.25-2.28.46-3.04l-.09-.09ZM73.08,71.84c-.91,2.82,3.61,5.15,4.87,2.7.4-1.01.06-2.63-.94-3.17-1.02-.58-2.86-.16-3.85.35l-.08.12ZM73.06,96.4c-.15-.24-.49-.37-.93-.49-10.24-2.52-18.87-9.06-28.05-13.95-4.36-2.77-8.47-6.05-12.81-8.92-.7-.52-1.98-.95-2.52-.24-.56,4.47,25.41,17,30.11,19.76,1.58.8,14.59,7.24,14.26,3.94l-.06-.1ZM86.78,76.39c-4.13.46-1.53,5.68,1.39,5.5,2.85-.71,2.93-6.22-1.28-5.52l-.11.02ZM30.33,80.97c-1.2.41-2.34,3.48-.96,4.22,1.92.63,3.8-4.09,1.08-4.23h-.12ZM35.54,91.43c.19.06,1.34.32,1.55.21.88-.8,1.44-2.29,1.52-3.48.06-1.2-.4-2.26-1.72-2.57-.21-.04-.39,0-.5.14-.69,1.76-1.8,3.71-.93,5.63l.07.08ZM46.22,91.15c-2.36-.97-5.38,5.05-2,5.26,2.06.21,2.94-3.95,2.08-5.21l-.08-.05ZM50.39,100.06c2.53,1.09,4.63-5.81,1.97-5.97-1.93.1-3.05,4.67-2.06,5.91l.09.06ZM57.92,99.57c-1.58,1.97,1.31,4.81,2.44,1.82.74-1.91-.96-3.68-2.35-1.95l-.09.13ZM65.81,106.01c.49-.23,2.11-.96,2.13-1,.03-.11.13-2.31.17-2.94-.66.04-1.92.68-2.32,1.29-.52.69-.31,1.81,0,2.57l.04.07Z"/>
</svg>