<?xml version="1.0" encoding="UTF-8"?>
<svg id="Calque_1" data-name="Calque 1" xmlns="http://www.w3.org/2000/svg" viewBox="0 0 126.33 119.67">
  <path fill="currentColor" d="M72.52,90.45c-.72-.24-1.42.39-2,.45-2.66.25-3.52-.33-5.84-.88-6.14-1.44-4.25,2.46-4.22,6.72-2.11.04-4.22.1-6.25-.59-.64-.53.65-6.38-.59-7.7-.52-.52-1.19-.11-1.78-.3-4.23-1.33-10.19-5.43-14.01-7.83-4.52-2.84-10.76-5.3-14.58-8.82-.88-.81-1.58-1.94-2.36-2.64-1.11-.98-3.02-1.57-4.09-2.75s-1.85-2.18-3.28-3.29c-.88-.69-3.44-2.09-3.69-2.89-.39-1.25.28-1.47.55-2.37.16-.52.07-1.05.27-1.57.26-.69,5.74-7.14,6.7-8.29,1.35-1.61,2.69-3.3,4.07-4.87s2.89-2.9,4.49-4.21c.57-.08,1.03.04,1.53.3,3.12,1.63,6.48,4.91,9.38,6.92,1.76,1.22,3.86,2.09,5.63,3.3,1.87-3.64,4.19-6.97,6.5-10.34,2.55-3.72,6.91-10.46,9.95-13.45,1.33-1.31,4.67-4.27,6.54-5.43,2.02-1.25,4.92-2.06,7.38-2.73,2.17-.59,6.97.04,9.22.53.86.19,7,3.48,7.97,4.12,1.15.76,2.16,2.23,3.72,2.56,2.43-.65,4.76-1.58,7.18-2.27,2.7-.76,6.92-2.23,9.52-2.6.7-.1,1.19.03,1.26.86.08.95-1.69,1.95-2.16,2.74-2.2,3.74-4.28,8.02-6.16,11.98-.4.84-1.19,3.49-1.6,3.92-.76.79-2.29-.06-3.31-.14-4.39-.35-10.71,3.49-13.28,6.96-4.4,5.94-5.62,23.34-1.17,29.3,1.03,1.37,2.72,2.33,3.94,3.94.82,1.08,1.63,1.11,1.02,2.9-.49,1.45-1.52,1.1-2.32,1.62-1.27.82-2.49,2.18-3.86,2.98-1.22.71-4.45,1.72-5.25,2.64-1.21,1.38-.43,6.44-1.03,6.86l-3.85-.13c-.35-1.89.92-3.68-.14-5.51ZM77.73,29.2c-2.08.31-2.24,5.76.47,5.99,1.12,0,2.23-2.09,2.21-3.01-.02-.99-1.51-3.15-2.67-2.98ZM38.01,54.22l-13.32-8.65c-.45-.23-2.68,2.16-1.78,2.33l13.6,8.75c1.69.61,2.66-1.17,1.51-2.43ZM16.98,54.43l-1.64,2.08,14.94,10.31c1.62.83,2.92-.91,1.75-2.28l-15.05-10.11Z"/>
  <path fill="currentColor" d="M102,42.34c.17,1.82-.16,3.36-.46,5.17-.66,3.98-.71,7.92-1.72,11.95-1.51,6.04-4.41,11.2-8.4,15.92-1.41.15-2.43.33-3.27-.95-1.51-2.29-3.74-6.97-4-9.67-.33-3.42.47-10.81,1.68-14.03,1.47-3.9,7.02-8.72,11.29-8.96,1.81-.1,3.05.77,4.88.57Z"/>
</svg>