<?xml version="1.0" encoding="UTF-8"?>
<svg id="Calque_1" data-name="Calque 1" xmlns="http://www.w3.org/2000/svg" viewBox="0 0 126.33 119.67">
  <path fill="currentColor" d="M102.09,34.78c.58.77.43,1.96.44,2.91-.2,2.5-.15,5.2.1,7.64.04.21.09.34.19.37.79-.03,2.02-2.68,2.53-3.53.87-1.26,1.96-.12,2.69.68.38.4.78.81.94,1.29.26.72-.15,1.57-.64,2.16-.24.32-2.4,2.68-.94,2.16,2.99-1.79,6.49-2.42,9.63-4.29,1.03-.46,1.77.28,2.13,1.31.47,1.17.34,2.53-.93,2.94-4.89,1.72-9.86,4.44-14.66,6.63-1.17.45-2.66.64-3.76,1.26-1.65,1.15-3.04,3.41-4.49,4.79-.74.59-1.33,1.3-1.89,2.07-.7.84-1.68,1.54-1.33,2.78.18,2.47,1.02,5.06,1.05,7.48-.07,1.08-.05,2.17.22,3.23.54,1.81-.2,3.76-.43,5.67-.48,4.47-2,8.58-3.83,12.65-.38,1.13-.98,2.16-1.85,2.99-2.28,2.28-3.91,5.16-6.71,6.72-8.51,3.59-18.17,4.69-27.2,2.76-3.48-.23-6.59-1.06-9.67-2.64-1.12-.4-2.14-.56-3.01-1.36-2.33-2.24-4.81-4.46-5.68-7.6-1.69-2.45-2.13-5.56-2.66-8.48-.46-1.39-.92-2.63-.87-4.08-.53-2.61-.86-5.48-.47-8.11.34-1.36-.31-2.57.1-3.9.44-1.42.09-2.85.71-4.26,2.24-6.18-4.43-1.26-6.7-.23-.56.29-1.36.43-1.81.1-.55-.36-1.02-1.03-1.31-1.59-.57-.92.41-1.46,1.24-1.76,1.52-.55,2.8-1.33,4.33-1.85,1.81-.79-.91-2.13-1.56-2.86-2.41-2.17-5.51.44-7.84,1.7-1.54,1.03-3.25,1.31-4.05-.8-.42-1.1,5.17-3.23,6.14-3.52.79-.19,1.6-.73.78-1.48-1.38-1.32-4.08-2.66-3.96-4.92.09-1.24,1.62-3.3,2.84-1.96,1.71,1.8,3.85,2.9,5.66,4.48.8.63,1.59,1.63,2.53,2.01.18.03.26-.09.27-.33-.02-.76-.5-2.26.5-2.48.59-.14,1.45-.36,2.11-.3,1.11.35.92,1.88,1.19,2.83.4,1.45-.03,4.06,1.81,4.24.78-.29.93-1.32,1.43-2.03,2.17-3.12,3.81-6.46,6.87-8.92.99-.7,2.14-1.47,3.33-1.65,1.06-.05,1.64,1.11,2.33,1.78,3.29,2.99,7.93,3.76,12.14,4.05,4.62.93,9.1-.96,13.52-2.14,1.85-.43,3.5-1.48,5.02-2.5,1.1-.59,1.77.4,2.58,1.08,3.52,2.8,5.63,7.27,7.91,10.99.51,1.17,1.09,1.01,1.87.16,1.16-1.19,2.07-2,3.06-3.34.35-.49.67-1.09.33-1.64-.56-.72-1.28-1.7-1.86-2.49-.63-.76-1.37-1.41-1.71-2.34-.41-1.04.28-1.88.76-2.86.91-1.96,2.1.85,2.81,1.62.75,1.07,1.87,1.76,2.91,2.52.41.3.71.5.82.35-.11-4.31.49-8.7.18-13.08-.22-2.62.1-3.53,3.02-3.41.23.03.52.05.69.21l.1.1Z"/>
  <path fill="currentColor" d="M47.76,42.46c-8.7-6.01-8.58-17.05-3.88-25.22,1.6-2.48,3.71-4.29,5.74-6.34,1.68-1.5,3.84-2.41,5.87-3.31,4.4-.87,8.78-.86,13.07.36,2.84,1.05,5.5,2.99,8,4.72,1.3.88,2.4,2.04,3.17,3.42,4.08,7.97,2.86,17.84-1.76,25.39-2.99,4.81-12.98,7.36-19.36,5.99-1.76-.51-3.69-.75-5.44-1.42-1.92-.86-3.46-2.4-5.28-3.5l-.13-.1ZM72.17,25.89c.71-.91,1.16-2.61.97-3.56-.21-1.05-.92-2.25-2.05-2.28-.59-.04-1.3.27-1.33.93-.22,1.64-.12,3.7,1.11,4.91.35.36.88.37,1.22.07l.08-.07ZM52.14,20.48c-.31.17-.61.67-.81,1.02-.41.67-.52,1.28-.15,1.94.27.73.16,1.31.73,1.77.42.32,1.36.74,1.92.47,1.31-.59.77-3.11.4-4.14-.16-.26-.36-.49-.55-.73-.13-.17-.17-.3-.3-.32-.25,0-.85-.03-1.19-.04l-.05.02ZM71.54,32.54c-2.36-1.41-8.57-4.49-9.51-5.04-.28.07-.19.79-.23,1.07.25,1.11-.18,6.33,1.24,6.24,1.36-.1,2.54-.85,3.9-.8.52-.03.97-.4,1.42-.5.92-.08,1.88-.41,2.78-.6.22-.08.36-.21.39-.31v-.07Z"/>
</svg>