<?xml version="1.0" encoding="UTF-8"?>
<svg id="Calque_1" data-name="Calque 1" xmlns="http://www.w3.org/2000/svg" viewBox="0 0 124.33 117.77">
  <path d="M95.41,103c-14.49-17.9-26.89-38.13-41.83-55.76-2.05-2.76-4.3-6.19-6.94-8.26-6.45-5-11.54.95-13.59,7.05-2.2,4.19-.07,11-4.58,14.06-3.48,2.26-9.24,1-12.21-2.62-3.46-4.58-2.41-12.78-1.36-18.35,2.62-11.96,14.38-21.14,26.26-21.89,6.73-.61,13.28,3.04,18.04,7.48,9.21,8.08,16.33,18.62,23.5,28.34,7.51,9.96,14.74,20.45,21.8,30.79,1.78,2.7,4.17,5.39,5.35,8.35,1.56,3.92-1.37,9.74-4.78,11.96-1.35.66-3.28.9-4.68,1.09-1.85.11-3.5-1.01-4.86-2.13l-.12-.12ZM97.06,99.54c.7.8,6.93,1.91,6.56.52-.94-.61-2.38-.81-3.49-1.11-1.08-.19-2.38-.53-3.44-.49-.17.09.23.83.3.99l.06.09ZM86.45,84.89c-.1,1.99,2.26,1.55,3.6,1.65,2.34.33,4.88.95,7.22,1.48,1.57.34,3.39,1.27,4.92,1.41,1.84.06.7-1.89-.42-2.17-4.4-1.54-9.48-1.43-13.95-2.56-.39-.09-1.07-.25-1.31.08l-.06.12ZM76.71,72.25c2.05.99,5.59,1.05,7.58,1.54,2.41.48,4.81,1.71,7.17,2.09,1.21.09.75-.86.02-1.29-3.51-1.66-9.94-2.85-13.73-3.2-.75-.1-2-.36-1.14.77l.1.09ZM27.88,54.98c.17-.32.3-1.16.17-1.61-1.03-2.5-5.36-5.92-6.74-8.95-.68-1.17-1.25-2.44-2.07-3.51-.16-.16-.34-.23-.51-.18-.87.41-.76,1.84-.38,2.63,1.5,3.26,4.94,7.55,7.25,9.92.57.46,1.56,1.65,2.21,1.74l.06-.06ZM66.92,57.75c-.04,1.1,1.64,1.02,2.5,1.11,5.14.54,9.26,1.59,14.12,3.17.99.2.36-.65-.04-.91-4.27-2.67-11.42-3.94-16.53-3.45l-.05.08ZM57.75,45.89c.92.57,2.37.2,3.41.3,3.76.35,7.57,1.13,11.16,1.91,2.59.59.32-1.39-.45-1.91-2.5-1.06-5.67-1.27-8.45-1.64-.73,0-8.23-.31-5.77,1.27l.1.07ZM30.95,40.89c.16-.09.18-.46.11-.92-.21-1.42-1.27-3.97-1.8-5.41-.67-1.68-.65-4.6-1.25-6.97-.14-.48-.22-.87-.45-.88-.3-.01-.93.49-1.12.98-.97,2.12,2.45,12.22,4.45,13.21h.07ZM38.71,33.4c.24.16.28,0,.43-.14,1.65-3.65,1.98-8.02,4.75-11.16.14-.19.22-.34.12-.42-.11-.1-.55-.1-.99-.11-.67-.03-1.02-.02-1.3.51-1.82,3.41-2.97,7.42-3.06,11.23l.06.09ZM60.01,31.59c-.15-.42-.7-1.35-1.3-1.45-2.34-.43-8.16,1.25-10.24,2.43-.66.39-1.5,1.03-1.27,1.61.15.4.66.66,1.06.64,1.47-.12,3.12-1.36,4.48-1.83,1.99-.64,5.49-.75,7.28-1.33v-.07Z"/>
</svg>