<?xml version="1.0" encoding="UTF-8"?>
<svg id="Calque_1" data-name="Calque 1" xmlns="http://www.w3.org/2000/svg" viewBox="0 0 126.33 119.67">
  <path fill="currentColor" d="M75.1,28.79c2.3,2.74,3.85,5.68,6.31,8.25,2.84,2.97,1.83,4.43-2.07,4.28-1.67-.11-3.11,0-4.7.49-.36.11-1.05.21-.97.7,2.2,2.98,5.62,5.22,8.02,8.13,3.04,2.87,5.73,5.84,8.42,8.96,1.79,1.96,5.25,3.4,6.05,6.08-.03.52-.6.66-1.07.72-3.63.43-7.3.03-10.97.29-1.23.14-2.58.5-3.78.61-.34.06-.53.14-.49.32.34.78,2.81,2.42,3.72,3.37,2.7,3.26,6.15,5.86,9.47,8.52,2.64,2.41,4.85,5.32,7.79,7.38.77.76,2.37,1.31,2.29,2.52-.29.78-1.09,1.29-1.65,1.39-2.38.21-27.57,2.31-30.27,2.54-.44.18-.1.73.03,1.54.63,3.12,1.01,6.44,1.85,9.5.12.9-.69,1.54-1.34,2.06-1.24.99-2.18,1.54-3.68,1.78-2.43.3-5.23.22-7.17-1.19-.84-.72-.73-2.04-1.07-3.25-.58-2.22-1.17-4.38-1.46-6.7-.13-1.46-.93-2.8-2.5-2.97-2.81-.44-5.74-.48-8.58-.66-5.54-.26-11.08-.46-16.61-.58-1.45-.06-2.95-.09-4.38-.29-.5-.09-.93-.29-1.13-.63-.3-.45-.09-1.18.33-1.76.92-1.38,2.22-1.56,3.4-2.56,4.76-4.78,10.29-8.9,15.14-13.57,1.45-1.76,2.97-3.21,4.64-4.73,1.16-1.34-1.27-1.18-2.07-1.21-2.19.09-4.23-.21-6.39-.18-2.49,0-8.74.62-5.4-3.48,1.48-1.8,15.92-19.29,17.99-21.79.26-.28.22-.36-.27-.73-.33-.23-.86-.49-1.4-.62-1.82-.58-7.31,1.28-7.3-1.68,1-1.8,14.6-25.52,16.98-29.7.26-.4.27-.75.75-.44,3.09,3.47,5.34,7.4,7.8,11.33.76,1.1,1.76,2.06,2.6,3.1,1.22,1.45,1.92,3.27,3.03,4.7l.11.15ZM65.93,37.1c1.19.38,3.72-.63,4.27-1.32.19-.32.16-.72.25-1.08.15-.46.43-.92.4-1.39,0-1.29-.79-2.94-1.98-3.43-1.79-.62-4.09.88-4.69,2.55-.51,1.66.83,3.31,1.66,4.59l.08.08ZM63.93,68.51c.69-.74,1.14-2.67.89-3.82-.26-1.39-1.37-1.37-2.6-1.62-.91-.09-1.66-.28-2.48.33-1.38.89-2.29,2.13-2.08,3.79.02.3.11.65.18.95.26.61.88.64,1.26,1.19.34.36.6.74,1.15.67,1.23.08,2.74-.75,3.59-1.42l.08-.07ZM63.16,76.39c-.57.78-1.58,3.04-1.41,4.13.27,1.24,1.4,2.93,2.3,3.52.51.29,1.08.42,1.66.6,1.33.39,2.69.24,4.07.19.73-.07,1.5.08,2.02-.2.38-.21.9-.74,1.27-1.12,1.71-1.79,1.36-5.3.26-7.45-2.7-2.11-7.57-2.38-10.08.22l-.09.11ZM46.34,80.84c-1.62.35-3.06,2.91-1.08,3.84.5.28.89.13,1.56.14.47,0,1,.17,1.41-.06.64-.39.39-1.43.41-2.1.11-.8-1.41-1.98-2.19-1.83l-.1.02Z"/>
</svg>