<?xml version="1.0" encoding="UTF-8"?>
<svg id="Calque_1" xmlns="http://www.w3.org/2000/svg" version="1.1" viewBox="0 0 120 120">
  <!-- Generator: Adobe Illustrator 29.8.2, SVG Export Plug-In . SVG Version: 2.1.1 Build 3)  -->
  <path fill="currentColor" d="M68.25,95.12c-.95,0-1.96-.13-2.99-.4-1.5-.38-3.09-.8-4.61-1.34-2.21-.79-4.04-2.23-5.72-3.65-3.58-3.01-7.26-6.1-9.79-10.14-.32-.51-.73-.91-1.17-1.34-.19-.19-.39-.38-.59-.59l-.32-.35-.39.27c-1.19.83-1.87,1.92-2.52,2.98-.27.43-.53.86-.83,1.26-.73.97-1.41,1.98-2.08,2.95l-.72,1.05c-.53.14-1.04.2-1.52.2-1.55,0-2.88-.71-4.07-2.18-.32-.39-.76-1.14-.09-1.72,2.6-2.22,4.49-5.02,6.31-7.72.55-.81,1.1-1.63,1.67-2.43.32-.45.63-.9.91-1.33l.59-.88-1.98-2.53c-1.74-2.23-3.42-4.38-5.1-6.55-.3-.38-.59-.76-.76-1.15l-.94-2.24c-1.09-2.58-2.22-5.24-3.19-7.9-.59-1.59.57-4.65,2.1-5.55,1.13-.66,2.45-1.07,3.82-1.47.51-.15,1.06-.18,1.65-.21.33-.02.66-.04.98-.07.63-.07,1.25-.16,1.93-.26l1.27-.17.11-.3c.04-.12.1-.23.15-.35.13-.31.29-.66.36-1.04,1.07-5.88,4.53-10.39,10.87-14.17.91-.55,2.09-.78,3.23-1.01l.64-.13.57-.13c.66-.15,1.35-.31,1.95-.31.29,0,.53.04.74.11.56.2,1.06.78,1.58,1.4.27.32.54.64.83.92l.24.23c.51.49,1.03,1,1.61,1.45,2.69,2.1,4.38,4.6,5.17,7.65.07.26.2.47.35.71.07.11.15.24.24.4l.21.37.58-.16c1.87-.5,3.63-.98,5.39-.98.45,0,.9.03,1.32.09,3.94.58,7.06,2.56,9.28,5.89.18.63.39,1.26.59,1.88.64,1.92,1.25,3.73.92,5.77-.44,2.75-1.48,4.5-3.37,5.67-.61.38-1.18.81-1.73,1.24-.25.19-.5.39-.76.58l-.45.33.34.44c.05.07.09.13.13.19.11.17.25.39.52.48,2.85.89,4.45,3.1,6.13,5.45.32.45.65.9.98,1.34,1.01,1.34,1.69,3.01,2.25,4.48,1.32,3.45.63,6.68-2.05,9.6-1.31,1.42-3.06,2.59-5.36,3.58-.82.35-1.61.52-2.39.52-.65,0-1.31-.13-1.96-.37l-.53-.2-.18.54c-.04.13-.09.25-.13.35-.1.25-.21.51-.19.8.15,2.38-.75,4.6-2.75,6.79-2.03,2.23-4.49,3.36-7.29,3.36ZM46.15,58.87l-1.26.06,1.37,1.33c.25.25.44.43.64.6,2.84,2.36,5.94,4.58,9.23,6.6,1.07.66,1.85,1.35,2.17,2.63.29,1.15.8,2.67,2.15,4.2l.65.74.28-.94c.39-1.33.32-2.56.26-3.75-.04-.82-.08-1.61.02-2.4.56.2,1.09.45,1.65.7,1.36.62,2.77,1.27,4.53,1.27h1.02l-.54-.85c-.16-.24-.31-.46-.44-.66-.27-.42-.5-.76-.75-1.08-.6-.74-1.21-1.47-1.82-2.2-.5-.6-1-1.19-1.49-1.79-.65-.79-.67-1.06-.16-1.82.22-.33.5-.64.79-.97,0,0,.91-1.04,1.19-1.36.59-.67,1.18-1.35,1.74-2.04.87-1.09,1.51-2.31,2.06-3.95l.38-1.14-1.11.47c-.26.11-.47.19-.65.26-.34.13-.58.23-.82.38-2.15,1.36-4.29,2.74-6.42,4.12-.41.26-.69.45-.98.45-.09,0-.18-.02-.28-.05-.02-2.26.14-4.56.31-7l.21-3.22-.99.91c-.13.12-.25.21-.35.3-.24.19-.46.37-.59.65-1.02,2.21-2.02,4.43-3.03,6.66l-1.13,2.5c-.16.36-.19.75-.22,1.1-.05.73-.11.86-.42.92-.12.02-.25.04-.39.04-.48,0-1.04-.14-1.58-.28l-.44-.11c-.48-.12-.94-.32-1.43-.53l-.48-.2c-.77-.32-1.49-.53-2.52-.53-.12,0-.23,0-.36,0Z"/>
</svg>