<?xml version="1.0" standalone="no"?>
<!DOCTYPE svg PUBLIC "-//W3C//DTD SVG 20010904//EN"
 "http://www.w3.org/TR/2001/REC-SVG-20010904/DTD/svg10.dtd">
<svg version="1.0" xmlns="http://www.w3.org/2000/svg"
 width="120.000000pt" height="120.000000pt" viewBox="0 0 120 120"
 preserveAspectRatio="xMidYMid meet">

<g transform="translate(0.000000,120.000000) scale(0.100000,-0.100000)"
fill="currentColor" stroke="none">
<path d="M506 1151 c-15 -17 -18 -33 -14 -95 l3 -75 -27 32 c-15 18 -27 35
-28 39 0 13 -78 48 -104 48 -38 0 -55 -10 -71 -41 -23 -44 -18 -90 15 -142
l29 -46 -25 9 c-38 15 -121 12 -153 -5 -28 -14 -41 -33 -41 -60 0 -26 65 -88
114 -110 l50 -22 -43 -7 c-94 -15 -161 -72 -161 -139 0 -44 38 -83 89 -92 l39
-6 -34 -51 c-57 -84 -57 -129 1 -136 33 -4 75 12 133 50 24 15 45 28 47 28 2
0 -8 -23 -22 -50 -29 -56 -35 -128 -13 -154 23 -29 56 -19 99 30 l41 47 0 -42
c0 -78 41 -122 95 -101 12 5 38 26 56 48 l33 39 21 -31 c11 -17 33 -37 48 -46
24 -13 30 -13 54 0 16 9 33 29 38 46 6 17 15 29 22 27 6 -2 19 7 28 21 16 24
19 25 38 11 27 -19 50 -19 86 -1 55 29 68 119 27 200 -20 39 -21 46 -7 41 62
-25 142 -6 162 39 18 39 2 77 -56 133 l-54 53 45 11 c52 13 104 58 104 89 0
50 -94 110 -174 110 l-29 0 40 29 c22 16 45 43 52 60 12 26 11 34 -3 56 -38
58 -115 57 -212 -1 -57 -34 -58 -35 -32 -7 38 39 50 77 36 108 -32 70 -144 24
-206 -85 l-27 -47 0 73 c0 58 -4 78 -21 101 -26 35 -64 41 -88 14z m145 -461
c25 -14 49 -62 49 -100 0 -43 -47 -90 -90 -90 -63 0 -110 40 -110 95 0 77 84
130 151 95z"/>
</g>
</svg>
