<?xml version="1.0" encoding="UTF-8"?>
<svg version="1.1" xmlns="http://www.w3.org/2000/svg" viewBox="0 0 120 120">
<path d="M0 0 C2.15435614 2.68346964 3.60093655 5.12186658 4.796875 8.34375 C5.26927612 9.58620483 5.26927612 9.58620483 5.7512207 10.85375977 C6.08081787 11.72701904 6.41041504 12.60027832 6.75 13.5 C14.33842315 32.85907266 25.3476109 46.07125974 43 57 C45.24735631 57.79570313 45.24735631 57.79570313 47 58 C57.66474007 48.12595494 61.01509968 37.39378617 64.30493164 23.45092773 C64.97287278 21.09565513 65.86559467 19.15986927 67 17 C67.77772405 14.66682784 68.42415568 12.38564077 69 10 C69.66 10 70.32 10 71 10 C71.185625 9.1028125 71.185625 9.1028125 71.375 8.1875 C72 6 72 6 74 3 C74.66 3 75.32 3 76 3 C76.20431369 10.73675962 76.34355058 18.47281377 76.43945312 26.21166992 C76.47946729 28.83921301 76.53389775 31.46658044 76.60351562 34.09350586 C77.30542075 61.27684608 77.30542075 61.27684608 68 72 C66.7735556 74.17878902 66.7735556 74.17878902 66 76 C66.8353125 76.185625 66.8353125 76.185625 67.6875 76.375 C72.4501753 77.66220954 75.98437295 78.94450156 79 83 C79.6213736 85.28665484 80.0585025 87.535865 80.41015625 89.87890625 C81.10336212 92.37169293 82.18417146 93.22353901 84 95 C84 95.99 84 96.98 84 98 C74.28089937 99.58133052 65.4701427 100.3220933 55.71118164 98.63720703 C49.3046167 97.59923269 45.05475216 99.21065655 39.5625 102.375 C38.86253906 102.77460937 38.16257813 103.17421875 37.44140625 103.5859375 C35.51586748 104.70120955 33.64599984 105.91258619 31.80078125 107.15625 C27.45124129 109.63154107 23.50857729 109.36666254 18.625 109.125 C5.74869289 108.81422543 -6.77782508 109.59624911 -19 114 C-20.794375 114.5878125 -20.794375 114.5878125 -22.625 115.1875 C-23.800625 115.5896875 -23.800625 115.5896875 -25 116 C-24.87890625 113.78515625 -24.87890625 113.78515625 -24 111 C-21.98580414 109.24608202 -20.16205829 107.86146431 -17.9375 106.4375 C-17.34477295 106.04401367 -16.7520459 105.65052734 -16.14135742 105.24511719 C-11.89457659 102.46683852 -7.60845288 100.09808292 -3 98 C-0.42919193 96.7246539 2.13321002 95.43335756 4.6953125 94.140625 C6.44132594 93.27649632 8.21518976 92.46835448 10 91.6875 C15.97570834 88.32616406 22.07699969 84.33399305 25 78 C24.61980713 77.472854 24.23961426 76.94570801 23.84790039 76.40258789 C19.85398407 70.67158939 17.0282895 64.90744629 14.4375 58.4375 C11.79056512 51.86988162 8.96482099 45.87695711 5 40 C4.47019531 39.17113281 3.94039062 38.34226563 3.39453125 37.48828125 C-3.6506352 27.79900295 -14.15782754 21.56144831 -24 15 C-23.67 14.34 -23.34 13.68 -23 13 C-17.65285424 15.22452317 -12.45636363 17.71458429 -7.3125 20.375 C-5.72888672 21.19097656 -5.72888672 21.19097656 -4.11328125 22.0234375 C-0.48184604 24.32896601 2.06076563 26.87127976 5 30 C4.88406494 29.44650879 4.76812988 28.89301758 4.64868164 28.32275391 C4.11462884 25.75791263 3.58854068 23.19149603 3.0625 20.625 C2.88009766 19.75488281 2.69769531 18.88476562 2.50976562 17.98828125 C1.2915775 12.00808498 0.4903951 6.08286407 0 0 Z M68 85 C68 86.32 68 87.64 68 89 C69.32 89 70.64 89 72 89 C72 87.68 72 86.36 72 85 C70.68 85 69.36 85 68 85 Z " fill="currentColor" transform="translate(29,1)"/>
<path d="M0 0 C4 1 4 1 4 1 Z " fill="currentColor" transform="translate(38,111)"/>
<path d="M0 0 C3 1 3 1 3 1 Z " fill="currentColor" transform="translate(45,110)"/>
<path d="M0 0 C2 1 2 1 2 1 Z " fill="currentColor" transform="translate(80,99)"/>
<path d="M0 0 C2 1 2 1 2 1 Z " fill="currentColor" transform="translate(33,92)"/>
<path d="M0 0 C2 1 2 1 2 1 Z " fill="currentColor" transform="translate(37,91)"/>
<path d="" fill="currentColor" transform="translate(0,0)"/>
<path d="" fill="currentColor" transform="translate(0,0)"/>
<path d="" fill="currentColor" transform="translate(0,0)"/>
<path d="" fill="currentColor" transform="translate(0,0)"/>
<path d="" fill="currentColor" transform="translate(0,0)"/>
</svg>
