<?xml version="1.0" encoding="UTF-8"?>
<svg id="Calque_1" fill="currentColor" xmlns="http://www.w3.org/2000/svg" version="1.1" viewBox="0 0 122 122">
  <!-- Generator: Adobe Illustrator 29.8.9, SVG Export Plug-In . SVG Version: 2.1.1 Build 1)  -->
  <path d="M9.41,59.22c6.24,21.05,25.22,37.13,47.72,36.68,21.53-.43,50.36-8.7,55.1-32.79,2.74-13.95-.74-28.86-8.28-40.9-2.71-4.33-9.49-.18-6.77,4.17,7.15,11.41,10.29,25.86,6.43,38.9-3.73,12.63-18.4,17.29-29.7,20.38-12.15,3.32-25.2,3.52-36.48-2.62-10.2-5.56-17.12-15.01-20.39-26.04-1.45-4.9-9.08-2.69-7.63,2.22h0Z"/>
  <path d="M92.18,26.02c-2.63-1.41-46.68,17.87-68.39,23.4l-1.63.51c-2.6.78-1.99,2.19-1.34,4.1,3.93,11.48,11.24,22.86,22.7,26.85,4.63,1.61,9.62,1.9,14.52,1.88,7.55-.03,15.24-.77,22.21-3.69,6.97-2.92,13.27-7.7,16.72-14.42,3.06-5.97,4.44-7.81,3.07-21.4-.65-6.46-5.24-15.83-7.87-17.23ZM42.62,52.38c0,.49-.81.87-1.15,1.22-.64.65-1.16,1.41-1.7,2.14-.58.79-.55,1.75-1.13,2.54-.31.42-.92.59-1.41.62-.52.03-1.01-.21-1.39-.54-.38-.33-.61-.92-.62-1.41-.01-.27.04-.51.15-.75.07-.25.2-.46.39-.65.58-.79,1.16-1.58,1.74-2.36.54-.73,1.06-1.49,1.7-2.14.78-.79,1.98-.79,2.81-.07.38.33.61.92.62,1.41ZM52.24,51.76c-.2.59-.05,2.85-.18,3.46l.33,2.98c.07.5-.23,1.03-.54,1.39-.35.41-.89.59-1.41.62-.48.03-1.05-.22-1.39-.54-.42-.4-.54-.86-.62-1.41-.37-2.62-.11-5.37.72-7.88.35-1.06,1.29-1.67,2.41-1.44,1,.21,1.02,1.83.7,2.82ZM64.66,57.61c-1.08.37-1.93-1.16-2.31-2.12-1.08-2.7-2.35-4.62-3.51-7.29-.44-1.02.44-2.15,1.35-2.46.47-.16,1.08-.07,1.51.17.5.28.73.68.95,1.19,1.16,2.67,2.28,5.36,3.36,8.06.41,1.03-.41,2.14-1.35,2.46ZM77.72,50.98c-.69.8-2.07.81-2.81.07-1.27-1.26-1.57-1.39-2.98-2.49-.19-.15-.38-.29-.56-.43-.08-.06-.17-.13-.25-.19-.01,0-.05-.04-.1-.07-.07-.05-.19-.14-.2-.14-.09-.06-.17-.12-.26-.18-.17-.12-.29-.57-.46-.68-.74-.5-1.14-.42-1.91-.88l-.41-.24c-.95-.57-1.28-1.7-.78-2.7.46-.94,2.41-.38,3.31.16,3.26,1.95,4.58,1.74,7.35,4.97.72.84.79,1.98.07,2.81ZM86.53,37.33c.06,1.09-.92,1.97-1.96,2.01-1.84.08-3.68.13-5.52.15-.89,0-1.78,0-2.67,0-.53,0-1.11.04-1.62-.09-.9-.22-1.37-.79-1.73-1.61-.45-1.02.44-2.15,1.35-2.46l1.41.18c.18,0,.36,0,.53,0,.39,0,.77,0,1.16,0,.77,0,1.54,0,2.31-.02,1.57-.02,2.96.76,4.53.69,1.11-.05,2.14.08,2.2,1.13Z"/>
</svg>