<?xml version="1.0" standalone="no"?>
<!DOCTYPE svg PUBLIC "-//W3C//DTD SVG 20010904//EN"
 "http://www.w3.org/TR/2001/REC-SVG-20010904/DTD/svg10.dtd">
<svg version="1.0" xmlns="http://www.w3.org/2000/svg"
 width="120.000000pt" height="120.000000pt" viewBox="0 0 120 120"
 preserveAspectRatio="xMidYMid meet">

<g transform="translate(0.000000,120.000000) scale(0.100000,-0.100000)"
fill="currentColor" stroke="none">
<path d="M915 1146 c-165 -53 -387 -231 -540 -434 -114 -153 -240 -431 -252
-562 -5 -49 -4 -53 10 -40 8 8 25 47 37 85 34 105 66 172 87 183 23 12 146 36
291 57 262 37 413 138 347 232 -60 85 -334 29 -538 -111 -41 -28 -40 -25 6 40
47 68 131 104 377 164 202 48 298 109 355 224 34 68 33 110 -4 147 -25 25 -37
29 -83 28 -29 0 -71 -6 -93 -13z m101 -111 c-18 -27 -92 -68 -211 -115 -107
-43 -181 -81 -277 -145 l-83 -55 60 55 c63 58 176 122 308 174 106 42 168 75
191 100 25 28 33 19 12 -14z m-201 -424 c-6 -5 -53 -16 -105 -26 -118 -21
-218 -54 -322 -106 -87 -43 -117 -47 -46 -5 109 64 283 123 398 135 41 5 77 9
80 10 2 0 0 -3 -5 -8z"/>
</g>
</svg>
